<svg width="14" height="14" viewBox="0 0 14 14" fill="none" xmlns="http://www.w3.org/2000/svg">
<path d="M10.1115 4.49034H8.25154C7.59229 4.49034 7.05646 5.02219 7.0516 5.68145L6.99773 12.9538M5.78863 8.26423H8.82192M1 7C1 4.17157 1 2.75736 1.87868 1.87868C2.75736 1 4.17157 1 7 1C9.8284 1 11.2426 1 12.1213 1.87868C13 2.75736 13 4.17157 13 7C13 9.8284 13 11.2426 12.1213 12.1213C11.2426 13 9.8284 13 7 13C4.17157 13 2.75736 13 1.87868 12.1213C1 11.2426 1 9.8284 1 7Z" stroke="#165648" stroke-width="1.5" stroke-linecap="round" stroke-linejoin="round"/>
</svg>
