<svg width="14" height="14" viewBox="0 0 14 14" fill="none" xmlns="http://www.w3.org/2000/svg">
<path d="M1.87868 1.87868L1.52513 1.52512L1.52512 1.52513L1.87868 1.87868ZM12.1213 1.87868L12.4749 1.52513L12.4749 1.52512L12.1213 1.87868ZM12.1213 12.1213L12.4749 12.4749L12.4749 12.4749L12.1213 12.1213ZM1.87868 12.1213L1.52512 12.4749L1.52513 12.4749L1.87868 12.1213ZM10.4786 4.02632C10.7548 4.02632 10.9786 3.80246 10.9786 3.52632C10.9786 3.25017 10.7548 3.02632 10.4786 3.02632V4.02632ZM10.4729 3.02632C10.1968 3.02632 9.97293 3.25017 9.97293 3.52632C9.97293 3.80246 10.1968 4.02632 10.4729 4.02632V3.02632ZM1.5 7C1.5 5.57165 1.50106 4.55069 1.60538 3.77481C1.70776 3.01331 1.90128 2.56319 2.23223 2.23223L1.52512 1.52513C0.977401 2.07285 0.731582 2.76918 0.614293 3.64156C0.498938 4.49956 0.5 5.59992 0.5 7H1.5ZM2.23223 2.23223C2.56319 1.90128 3.01331 1.70776 3.77481 1.60538C4.55069 1.50106 5.57165 1.5 7 1.5V0.5C5.59992 0.5 4.49956 0.498938 3.64156 0.614293C2.76918 0.731582 2.07285 0.977401 1.52513 1.52512L2.23223 2.23223ZM7 1.5C8.42833 1.5 9.4493 1.50106 10.2252 1.60538C10.9867 1.70776 11.4368 1.90128 11.7678 2.23224L12.4749 1.52512C11.9272 0.9774 11.2308 0.731582 10.3584 0.614293C9.50042 0.498938 8.40007 0.5 7 0.5V1.5ZM11.7678 2.23222C12.0987 2.56318 12.2922 3.01331 12.3946 3.77481C12.4989 4.55069 12.5 5.57165 12.5 7H13.5C13.5 5.59992 13.5011 4.49957 13.3857 3.64156C13.2684 2.76918 13.0226 2.07286 12.4749 1.52513L11.7678 2.23222ZM12.5 7C12.5 8.42833 12.4989 9.4493 12.3946 10.2252C12.2922 10.9867 12.0987 11.4368 11.7678 11.7678L12.4749 12.4749C13.0226 11.9271 13.2684 11.2308 13.3857 10.3584C13.5011 9.50042 13.5 8.40007 13.5 7H12.5ZM11.7678 11.7678C11.4368 12.0987 10.9867 12.2922 10.2252 12.3946C9.4493 12.4989 8.42833 12.5 7 12.5V13.5C8.40007 13.5 9.50042 13.5011 10.3584 13.3857C11.2308 13.2684 11.9271 13.0226 12.4749 12.4749L11.7678 11.7678ZM7 12.5C5.57165 12.5 4.55069 12.4989 3.77481 12.3946C3.01331 12.2922 2.56318 12.0987 2.23222 11.7678L1.52513 12.4749C2.07286 13.0226 2.76918 13.2684 3.64156 13.3857C4.49957 13.5011 5.59992 13.5 7 13.5V12.5ZM2.23224 11.7678C1.90128 11.4368 1.70776 10.9867 1.60538 10.2252C1.50106 9.4493 1.5 8.42833 1.5 7H0.5C0.5 8.40007 0.498938 9.50042 0.614293 10.3584C0.731582 11.2308 0.9774 11.9272 1.52512 12.4749L2.23224 11.7678ZM9.3421 7C9.3421 8.29352 8.29352 9.3421 7 9.3421V10.3421C8.84581 10.3421 10.3421 8.84581 10.3421 7H9.3421ZM7 9.3421C5.70649 9.3421 4.65789 8.29352 4.65789 7H3.65789C3.65789 8.84581 5.15421 10.3421 7 10.3421V9.3421ZM4.65789 7C4.65789 5.70649 5.70649 4.65789 7 4.65789V3.65789C5.15421 3.65789 3.65789 5.15421 3.65789 7H4.65789ZM7 4.65789C8.29352 4.65789 9.3421 5.70649 9.3421 7H10.3421C10.3421 5.15421 8.84581 3.65789 7 3.65789V4.65789ZM10.4786 3.02632H10.4729V4.02632H10.4786V3.02632Z" fill="#165648"/>
</svg>
