<svg width="131" height="130" viewBox="0 0 131 130" fill="none" xmlns="http://www.w3.org/2000/svg">
<path d="M108.833 114.054C122.222 102.091 130.65 84.6925 130.65 65.325C130.65 29.247 101.403 0 65.325 0C29.247 0 0 29.247 0 65.325C0 82.7803 6.84624 98.6366 18 110.355V97.4158L24.9612 90.4067L24.4594 89.6475C23.0971 87.5863 22.3984 85.7982 21.9415 83.2046C20.8994 77.2881 23.286 73.4122 31.1632 68.2281C35.1579 65.5993 42.6893 61.5198 47.9984 59.1092L50.5106 57.9685V55.4842L49.6732 55.2697C46.1161 54.3593 43.3772 52.2444 41.7574 49.158C40.8211 47.374 40.4615 45.867 40.4642 43.7387C40.4676 41.1244 41.0305 39.2506 42.4566 37.1072C43.8394 35.0282 45.8726 33.4873 48.4417 32.5703C49.7506 32.1033 50.3486 32.1081 50.8651 32.59C51.5856 33.262 51.6126 33.8718 50.9683 34.9118C48.9105 38.2338 49.1656 41.6306 51.6658 44.1938C53.8491 46.4322 57.2677 46.9708 59.9682 45.5018C61.5721 44.6293 61.952 44.4148 62.2917 44.4662C62.411 44.4842 62.5255 44.5351 62.6863 44.6018C63.5998 44.9806 63.8348 45.6074 63.527 46.8429C63.0634 48.7048 61.9748 50.5228 60.3704 52.1152C58.4987 53.9726 57.1213 54.6956 54.1957 55.3567C53.657 55.4783 53.646 55.5084 53.7031 56.6939L53.7617 57.9068L57.8008 59.8052C68.5861 64.8745 77.0946 70.2813 80.1798 74.0265C83.3841 77.9161 83.4811 83.3961 80.4395 88.7075L79.4456 90.443L86.3708 97.4158V127.186C87.0362 126.959 87.6968 126.723 88.3523 126.476C88.399 123.986 88.6354 123.838 89.8078 123.618L90.5085 123.487V71.2954L89.8078 71.1638C88.3937 70.898 88.3411 70.7304 88.3411 66.48C88.3411 62.8656 88.3604 62.6746 88.7695 62.2384C89.0508 61.9388 89.423 61.7819 89.8531 61.7819H90.5085V51.6007L91.0681 50.7236C91.3758 50.2413 93.0605 47.822 94.8117 45.3475L97.9958 40.8484V37.2226C97.9958 33.5749 98.1248 32.7007 98.7319 32.2393C99.2357 31.8563 100.185 31.9445 100.692 32.4216C101.139 32.8418 101.148 32.9301 101.148 36.7238V40.597L104.065 44.7285C105.669 47.0009 107.398 49.4697 107.907 50.2146L108.833 51.5694V61.7819H109.46C109.834 61.7819 110.273 61.9557 110.544 62.2108C110.99 62.6306 111 62.7222 111 66.4523C111 70.7335 110.949 70.8979 109.533 71.1638L108.833 71.2954V73.1565C108.833 74.8695 108.794 75.0561 108.349 75.5018C108.044 75.8072 107.64 75.9861 107.256 75.9861C106.873 75.9861 106.469 75.8072 106.164 75.5018C105.718 75.0553 105.68 74.8709 105.68 73.1344V71.2514H93.661V123.531H95.0114C98.7961 121.596 102.367 119.304 105.68 116.698V80.9001L106.164 80.416C106.804 79.7753 107.709 79.7753 108.349 80.416L108.833 80.9001V114.054Z" fill="#165648"/>
<path d="M29.0832 103.92C29.5438 103.539 30.3195 102.918 30.8072 102.539C31.2949 102.16 31.7697 101.846 31.8625 101.84C31.9553 101.834 32.7756 102.412 33.6851 103.123L35.339 104.416V110.313H28.2458V104.611L29.0832 103.92Z" fill="#165648"/>
<path d="M68.846 104.493L70.5645 103.171C71.5095 102.445 72.3587 101.846 72.4515 101.84C72.5443 101.834 73.3645 102.412 74.2741 103.123L75.928 104.416V110.313H68.8347L68.846 104.493Z" fill="#165648"/>
<path fill-rule="evenodd" clip-rule="evenodd" d="M83.2182 128.169V98.7676L76.6134 92.1631H62.3078C48.1336 92.1631 47.9976 92.1593 47.4832 91.7541C46.7498 91.1767 46.7498 89.993 47.4832 89.4155C47.9974 89.0103 48.1344 89.0066 62.2513 89.0066H76.5002L77.1204 88.104C79.3954 84.7933 80.1094 80.3556 78.7986 77.6732C77.7866 75.6022 75.5075 73.5463 70.9036 70.5514C66.8603 67.9213 59.7613 64.1304 53.6586 61.3426L52.1763 60.6653L47.7476 62.7603C38.5713 67.1008 31.3473 71.4548 27.8223 74.7697C25.2792 77.1611 24.5183 79.3197 25.0396 82.6638C25.3127 84.4165 26.1759 86.5404 27.2503 88.104L27.8706 89.0066H42.0561L42.5396 89.4909C43.0643 90.0161 43.1683 90.8724 42.7707 91.3911C42.2078 92.1252 41.8117 92.1631 34.7095 92.1631H27.7488L21.1525 98.7761V113.452C27.079 118.894 34.0136 123.256 41.6441 126.225V113.027L45.2177 109.352C50.7736 103.638 51.3091 103.072 51.8917 103.018C51.9719 103.011 52.0531 103.013 52.1483 103.013C52.2431 103.013 52.3268 103.013 52.4094 103.022C53.0436 103.089 53.6219 103.684 58.761 108.955L62.7267 113.023V129.844H75.6191C78.2058 129.434 80.742 128.873 83.2182 128.169ZM28.31 100.492C29.8461 99.3083 31.2357 98.287 31.3983 98.2223C32.0198 97.9745 32.7281 98.3693 35.4564 100.484C37.463 102.039 38.3321 102.838 38.4805 103.264C38.7528 104.046 38.7556 111.689 38.4838 112.405C38.0874 113.449 38.0401 113.456 31.9271 113.463C28.5874 113.467 26.1011 113.39 25.889 113.276C25.6908 113.17 25.4307 112.802 25.3109 112.458C25.0245 111.635 25.0197 104.072 25.3052 103.253C25.4587 102.811 26.287 102.051 28.31 100.492ZM68.6984 100.629C70.1269 99.5127 71.5176 98.4815 71.7891 98.3369C72.0606 98.1925 72.4958 98.1252 72.7561 98.1878C73.0164 98.2501 74.5012 99.287 76.0558 100.492C78.4244 102.327 78.9142 102.797 79.0789 103.39C79.3307 104.298 79.3378 111.387 79.088 112.26C79.0077 112.54 78.9466 112.755 78.8202 112.919C78.4065 113.457 77.2931 113.458 72.5161 113.463C69.1764 113.467 66.69 113.39 66.478 113.276C66.2798 113.17 66.0197 112.802 65.8999 112.458C65.6154 111.64 65.6087 104.073 65.8918 103.259C66.0398 102.835 66.8662 102.06 68.6984 100.629Z" fill="#165648"/>
<path d="M55.0309 129.844H59.5742L59.5629 114.357L52.1777 106.702L44.8013 114.357L44.7974 127.36C48.0997 128.452 51.5187 129.288 55.0309 129.844Z" fill="#165648"/>
<path d="M43.6507 44.2165C43.5309 41.7089 44.0634 40.074 45.6569 38.059C45.9786 37.6522 46.2935 37.3192 46.3565 37.3194C46.4198 37.3194 46.4742 38.1851 46.4775 39.2429C46.4868 42.1127 47.4635 44.4957 49.4425 46.4772C51.4162 48.4535 53.8028 49.4366 56.649 49.4458C58.6688 49.4523 58.7198 49.4946 57.7272 50.3373C56.0025 51.8015 54.1608 52.394 51.7003 52.2762C50.2458 52.2066 49.778 52.0906 48.5284 51.4898C46.6298 50.5772 45.3475 49.2933 44.436 47.3923C43.8361 46.1412 43.7202 45.6729 43.6507 44.2165Z" fill="#165648"/>
<path d="M93.661 52.4958L96.6437 48.2489C98.284 45.9133 99.6928 44.0743 99.7742 44.1625C99.8554 44.2505 101.218 46.1686 102.801 48.4247L105.68 52.5266V61.7819H104.695V59.4365C104.695 58.1312 104.72 57.5003 104.482 56.9917C104.225 56.4415 103.662 56.0344 102.429 55.0715C100.677 53.7033 99.771 53.2379 99.2383 53.4334C98.6647 53.6437 94.9006 56.613 94.7676 56.9598C94.7008 57.1342 94.6462 58.2905 94.6462 59.5294V61.7819H93.661V52.4958Z" fill="#165648"/>
<path d="M97.8149 58.3295L98.6442 57.6998C99.1003 57.3534 99.5531 57.0648 99.6503 57.0587C99.7474 57.0524 100.213 57.3639 100.685 57.7509L101.542 58.4546V61.7819H97.7987L97.8149 58.3295Z" fill="#165648"/>
<path d="M91.4936 68.0949V64.9384H107.847V68.0949H91.4936Z" fill="#165648"/>
</svg>
