<svg width="132" height="131" viewBox="0 0 132 131" fill="none" xmlns="http://www.w3.org/2000/svg">
<path d="M87.8062 126.982C113.25 118.053 131.493 93.8197 131.493 65.3256C131.493 29.2473 102.246 0 66.1674 0C30.089 0 0.841766 29.2473 0.841766 65.3256C0.841766 93.8239 19.0903 118.06 44.5396 126.986C44.6445 124 44.7685 120.218 44.8853 116.387C45.1158 108.825 45.3858 100.82 45.4852 98.5984L45.6661 94.5588L44.4173 94.5526C41.9315 94.5401 39.1278 92.4461 38.4753 90.1142C38.2836 89.4287 38.1716 84.5784 38.1707 76.9032C38.169 63.8634 38.197 63.585 39.6826 62.0063C40.9608 60.6479 42.8146 59.9309 50.3325 57.8885L58.0244 55.7984L58.1135 54.5978C58.1972 53.4716 58.0981 53.2893 56.5077 51.6457C53.3714 48.4049 52.4643 45.6631 52.4578 39.4033C52.4555 37.21 52.5929 34.6587 52.7632 33.7337C53.6591 28.8658 57.2893 24.8687 62.3097 23.2217C63.0442 22.9807 64.5753 22.8716 66.5951 22.9161C69.566 22.9813 69.8602 23.0431 71.9815 24.0458C75.9522 25.9227 78.802 29.5609 79.5699 33.7337C79.7402 34.6587 79.8776 37.21 79.8753 39.4033C79.8688 45.6631 78.9617 48.4049 75.8254 51.6457C74.2324 53.2918 74.1355 53.4701 74.2195 54.6049L74.3087 55.8122L81.3643 57.7073C89.5776 59.9131 90.5287 60.2447 91.928 61.3891C93.9021 63.0039 94.1641 63.9943 94.1641 69.8439V74.9987H89.593V70.3086C89.593 65.8072 89.5667 65.592 88.9431 64.9732C88.3123 64.3473 87.5524 64.1103 76.7422 61.1692L73.7476 60.3542L73.0068 61.5108C72.1097 62.9117 70.6002 64.2628 69.3651 64.7705L68.4521 65.1458V71.3135H63.881V65.1631L62.7686 64.6653C61.5698 64.129 59.616 62.2756 58.9852 61.0765L58.5958 60.336L55.7389 61.1281C54.1676 61.5638 50.8925 62.4621 48.461 63.1243C45.3672 63.9668 43.8448 64.5222 43.39 64.9732L42.74 65.6181V77.1645C42.74 88.6293 42.7443 88.7155 43.3611 89.3672C43.9811 90.0218 43.9982 90.0232 51.789 90.0232H59.5957V84.0701H49.0252V70.7465H53.3105V79.5344H79.0225V70.7465H83.3079V84.0701H74.5944V90.0232H81.4326C86.2217 90.0232 88.2182 90.1788 89.0416 89.2707C89.7431 88.497 89.593 86.9512 89.593 83.879V78.9675H94.1641L94.1623 83.9992C94.1615 86.7665 94.0244 89.5183 93.8578 90.1142C93.2093 92.431 90.4024 94.5401 87.9503 94.5526C87.2827 94.556 86.737 94.6547 86.7379 94.7715C86.7387 94.8882 87.1881 108.442 87.7366 124.891C87.76 125.592 87.7832 126.289 87.8062 126.982Z" fill="#165648"/>
<path fill-rule="evenodd" clip-rule="evenodd" d="M83.2821 128.386C83.2439 127.239 83.205 126.072 83.1656 124.891C82.6171 108.442 82.1677 94.8882 82.1668 94.7715C82.166 94.6547 74.9823 94.5588 66.2031 94.5588H50.2411L50.0605 98.4567C49.9614 100.601 49.6849 108.86 49.4466 116.812C49.3169 121.135 49.1786 125.303 49.0652 128.39C54.5162 129.864 60.2499 130.651 66.1674 130.651C72.0894 130.651 77.8273 129.863 83.2821 128.386ZM74.1658 110.183L75.38 110.074C76.0477 110.015 77.0664 109.944 77.6438 109.916L78.6934 109.867L78.8797 114.333L76.7545 114.51C75.1992 114.64 74.5684 114.592 74.4018 114.332C74.277 114.137 74.1727 113.123 74.1701 112.08L74.1658 110.183ZM74.4515 118.687L75.6657 118.579C76.3334 118.519 77.3521 118.448 77.9295 118.421L78.9791 118.371L79.1654 122.837L77.0401 123.015C75.4849 123.144 74.854 123.097 74.6875 122.837C74.5626 122.641 74.4584 121.628 74.4558 120.584L74.4515 118.687Z" fill="#165648"/>
<path d="M57.7241 33.1418C58.2067 31.2343 60.3213 29.0532 62.7463 27.9615C64.511 27.1675 67.8221 27.1675 69.5868 27.9615C72.0117 29.0532 74.1264 31.2343 74.6089 33.1418L74.7992 33.8942H57.5339L57.7241 33.1418Z" fill="#165648"/>
<path d="M59.6011 48.183C57.7827 46.2252 57.2376 44.7441 57.0822 41.3355L56.9496 38.4298H75.3834L75.2514 41.3766C75.0932 44.9059 74.339 46.748 72.2817 48.6297C70.3716 50.3765 68.7437 51.0146 66.1648 51.0268C63.5128 51.0396 61.4075 50.1273 59.6011 48.183Z" fill="#165648"/>
<path d="M63.9642 59.8688C62.9988 58.9909 62.9031 58.7633 62.7957 57.0851L62.6783 55.2575L64.4224 55.5438C65.5963 55.7366 66.7368 55.7366 67.9107 55.5438L69.6548 55.2575L69.5374 57.0851C69.43 58.7633 69.3343 58.9909 68.3689 59.8688C67.5387 60.6238 67.0756 60.8247 66.1665 60.8247C65.2575 60.8247 64.7944 60.6238 63.9642 59.8688Z" fill="#165648"/>
<path d="M66.2791 90.0232H64.1667V84.0701H66.0425C68.9423 84.0701 70.1488 84.9713 70.1599 87.1456C70.165 88.1635 70.0116 88.5216 69.2788 89.2008C68.4655 89.9548 68.2161 90.0232 66.2791 90.0232Z" fill="#165648"/>
</svg>
