<svg width="132" height="131" viewBox="0 0 132 131" fill="none" xmlns="http://www.w3.org/2000/svg">
<path d="M101.26 120.219C119.251 108.584 131.158 88.3454 131.158 65.3256C131.158 29.2473 101.911 0 65.8327 0C29.7543 0 0.50708 29.2473 0.50708 65.3256C0.50708 88.4823 12.556 108.825 30.7265 120.426V65.5459L29.5342 65.4503C26.7963 65.2309 24.0071 63.1808 22.6849 60.4159L22 58.9836V51.4626L22.6849 50.0304C23.7877 47.7244 25.7875 45.9901 28.2463 45.2072C28.8335 45.0203 36.4757 44.9803 66.2756 45.0078L103.57 45.0423L105.004 45.7262C105.995 46.1985 106.778 46.7488 107.535 47.5041C108.291 48.2593 108.842 49.0415 109.315 50.0304L110 51.4626V58.9836L109.315 60.4159C107.993 63.1808 105.204 65.2309 102.466 65.4503L101.273 65.5459L101.273 98.3103C101.273 108.389 101.272 115.368 101.26 120.219Z" fill="#165648"/>
<path d="M95.3946 123.595V118.326H86.5762L86.5755 124.7C86.5754 125.714 86.5747 126.568 86.5721 127.29C89.6192 126.271 92.5662 125.033 95.3946 123.595Z" fill="#165648"/>
<path d="M80.6973 128.953V118.326H68.9395L68.9387 124.7C68.9384 128.137 68.932 129.737 68.8627 130.582C72.9147 130.397 76.8706 129.843 80.6973 128.953Z" fill="#165648"/>
<path d="M63.0605 130.593V118.326H51.3027L51.302 124.7C51.3018 126.685 51.2996 128.057 51.2844 129.025C55.0939 129.892 59.03 130.425 63.0605 130.593Z" fill="#165648"/>
<path d="M45.4238 127.4V118.326H36.6054L36.6048 123.764C39.4334 125.181 42.3792 126.4 45.4238 127.4Z" fill="#165648"/>
<path d="M27.88 55.2231C27.8813 52.4882 28.286 51.673 29.9336 51.0864C30.9777 50.7146 101.022 50.7146 102.066 51.0864C103.714 51.673 104.119 52.4882 104.12 55.2231C104.121 57.0039 104.064 57.4297 103.754 57.9554C103.281 58.7569 102.622 59.2408 101.719 59.4501C100.76 59.6719 31.2396 59.6719 30.2814 59.4501C29.378 59.2408 28.719 58.7569 28.2463 57.9554C27.9362 57.4297 27.8791 57.0039 27.88 55.2231Z" fill="#165648"/>
<path d="M37.5343 112.364L36.6973 111.528L36.5999 65.4956H42.4843V78.5289C42.4843 89.3647 42.5279 91.6456 42.7425 92.0574C43.2378 93.008 43.8512 93.3842 45.6301 93.8287C48.6745 94.5892 50.4549 95.6082 52.3523 97.6758C53.7252 99.1717 54.6566 101 55.2565 103.376C55.6467 104.92 55.8183 105.302 56.3441 105.795C56.6874 106.117 57.3088 106.472 57.7249 106.583C58.24 106.722 61.0443 106.77 66.5122 106.732C73.9363 106.682 74.5851 106.652 75.1024 106.339C75.9409 105.832 76.4266 104.99 76.7404 103.5C77.467 100.051 79.5268 97.1286 82.5025 95.3237C83.5697 94.6764 85.8533 93.8614 87.1933 93.6495C88.16 93.4967 89.2959 92.4243 89.5208 91.4521C89.6158 91.0421 89.6926 85.1528 89.695 78.107L89.6994 65.4956H95.4001L95.3027 111.528L94.4657 112.364H37.5343Z" fill="#165648"/>
<path d="M83.6367 74.3006H48.3633V65.4956H83.6367V74.3006Z" fill="#165648"/>
<path d="M49.2359 88.5165L48.3633 88.192V80.1707H83.6367V88.1702L81.9517 88.8572C77.3281 90.742 73.6475 94.4175 71.7591 99.0359L71.0698 100.721L60.799 100.624L60.4747 99.6714C59.5047 96.8211 57.2175 93.6161 54.7419 91.6385C53.2694 90.4621 50.9841 89.1663 49.2359 88.5165Z" fill="#165648"/>
</svg>
