<svg width="131" height="131" viewBox="0 0 131 131" fill="none" xmlns="http://www.w3.org/2000/svg">
<path d="M104.647 117.718C120.61 105.808 130.947 86.7738 130.947 65.3256C130.947 29.2473 101.7 0 65.6214 0C29.543 0 0.295776 29.2473 0.295776 65.3256C0.295776 86.7738 10.6324 105.808 26.5957 117.718V88.113C26.5957 42.9017 26.6155 40.7737 27.0519 39.3572C28.822 33.6087 33.4092 29.0724 38.901 27.6391C40.6345 27.1868 41.8742 27.164 65.5198 27.151C89.4736 27.1379 90.386 27.1542 92.2441 27.6277C97.81 29.046 102.405 33.5572 104.191 39.3572C104.627 40.7737 104.647 42.9017 104.647 88.113V117.718Z" fill="#165648"/>
<path d="M85.9395 49.3552H45.3032V45.6522H85.9395V49.3552Z" fill="#165648"/>
<path d="M85.9395 64.1672H45.3032V60.4642H85.9395V64.1672Z" fill="#165648"/>
<path d="M85.9395 75.2761V78.979H45.3032V75.2761H85.9395Z" fill="#165648"/>
<path fill-rule="evenodd" clip-rule="evenodd" d="M100.76 120.405C100.793 113.036 100.806 102.508 100.806 88.0745C100.806 43.7686 100.873 41.0915 99.8524 38.9267C99.7213 38.6486 99.5723 38.379 99.403 38.0309C98.5261 36.2277 95.9484 33.5601 94.1835 32.6291C93.5995 32.3211 93.1717 32.0705 92.7228 31.8663C90.6135 30.9069 88.0378 30.9732 66.6125 30.9357C53.7341 30.913 42.5831 30.976 41.8323 31.0754C38.7066 31.4896 36.2213 32.7581 34.0572 35.0438C33.1924 35.9571 32.1946 37.3014 31.8397 38.0309C31.6704 38.379 31.5214 38.6486 31.3904 38.9267C30.37 41.0915 30.4363 43.7686 30.4363 88.0745C30.4363 102.508 30.4502 113.036 30.4826 120.405C40.6286 126.891 52.6859 130.651 65.6214 130.651C78.5569 130.651 90.6142 126.891 100.76 120.405ZM34.7066 40.1384C35.9636 37.4653 37.8978 35.6893 40.4105 34.9016C41.2632 34.634 46.1105 34.5807 65.9931 34.6192L90.5235 34.6668L91.9968 35.3874C93.9424 36.3393 95.4623 37.8958 96.4271 39.9248L97.2136 41.579V83.0523L96.4271 84.7065C95.4623 86.7355 93.9424 88.2919 91.9968 89.2439L90.5235 89.9645H40.7193L39.246 89.2439C37.3004 88.2919 35.7805 86.7355 34.8156 84.7065L34.0292 83.0523L33.9531 74.278C33.8785 65.6426 33.8855 65.4931 34.4048 64.8354C35.1444 63.8985 36.6237 63.8897 37.3562 64.8176C37.852 65.4454 37.8698 65.7483 37.8698 73.491C37.8698 78.7884 37.9659 81.8333 38.1525 82.4544C38.5292 83.706 39.6654 85.0401 40.9292 85.7132L41.9582 86.2615H89.2846L90.3136 85.7132C91.5773 85.0401 92.7137 83.706 93.0903 82.4544C93.4902 81.1238 93.4902 43.5076 93.0903 42.1769C92.7137 40.9253 91.5773 39.5912 90.3136 38.9181L89.2846 38.3698H41.9582L40.9292 38.9181C39.6654 39.5912 38.5292 40.9253 38.1525 42.1769C37.9659 42.7981 37.8698 45.8429 37.8698 51.1403C37.8698 58.883 37.852 59.1859 37.3562 59.8137C36.6237 60.7416 35.1444 60.7327 34.4048 59.7959C33.8855 59.1383 33.8785 58.9886 33.9531 50.3534L34.0292 41.579L34.7066 40.1384ZM41.3388 47.5037C41.3388 43.5745 41.3779 43.2007 41.8524 42.5998L42.3658 41.9494H88.877L89.3904 42.5998C89.8649 43.2007 89.9041 43.5745 89.9041 47.5037C89.9041 51.4331 89.8649 51.8069 89.3904 52.4077L88.877 53.0582H42.3658L41.8524 52.4077C41.3779 51.8069 41.3388 51.4331 41.3388 47.5037ZM41.3388 62.3157C41.3388 58.3863 41.3779 58.0125 41.8524 57.4117L42.3658 56.7612H88.877L89.3904 57.4117C89.8649 58.0125 89.9041 58.3863 89.9041 62.3157C89.9041 66.245 89.8649 66.6188 89.3904 67.2197L88.877 67.8701H42.3658L41.8524 67.2197C41.3779 66.6188 41.3388 66.245 41.3388 62.3157ZM41.3388 77.1275C41.3388 73.1982 41.3779 72.8245 41.8524 72.2236L42.3658 71.5731H88.877L89.3904 72.2236C89.8649 72.8245 89.9041 73.1982 89.9041 77.1275C89.9041 81.0569 89.8649 81.4306 89.3904 82.0315L88.877 82.682H42.3658L41.8524 82.0315C41.3779 81.4306 41.3388 81.0569 41.3388 77.1275Z" fill="#165648"/>
</svg>
