<svg width="14" height="14" viewBox="0 0 14 14" fill="none" xmlns="http://www.w3.org/2000/svg">
<path d="M5.23529 13C7.57438 13 9.47059 11.3882 9.47059 9.4V4.74722C10.1769 5.22849 11.0222 5.56847 11.9472 5.71673C12.1945 5.75637 12.3182 5.77619 12.4707 5.74268C12.652 5.70285 12.8534 5.56096 12.933 5.41694C13 5.29571 13 5.16381 13 4.9C13 4.62482 13 4.48723 12.9646 4.3959C12.9062 4.24474 12.8554 4.18629 12.7028 4.09416C12.6106 4.0385 12.3926 3.98126 11.9567 3.86678C10.8465 3.57519 9.97035 2.83047 9.62729 1.88679C9.49261 1.51627 9.42527 1.33101 9.35984 1.25262C9.25141 1.12287 9.18266 1.07976 9.00485 1.03004C8.89734 1 8.73548 1 8.41176 1C8.08289 1 7.91842 1 7.78868 1.04567C7.61574 1.10657 7.47831 1.22337 7.40666 1.37039C7.35294 1.48065 7.35294 1.62044 7.35294 1.9V9.4C7.35294 10.3941 6.40487 11.2 5.23529 11.2C4.06575 11.2 3.11765 10.3941 3.11765 9.4C3.11765 8.71864 3.56307 8.12566 4.21991 7.82002C4.70775 7.59304 4.95167 7.47952 5.01996 7.42342C5.15458 7.31284 5.16071 7.30408 5.21019 7.1506C5.23529 7.07272 5.23529 6.94846 5.23529 6.7C5.23529 6.44482 5.23529 6.31726 5.16347 6.19246C5.08119 6.04954 4.85688 5.90134 4.67362 5.86882C4.51364 5.84044 4.40482 5.86402 4.18719 5.91106C2.35504 6.30754 1 7.71928 1 9.4C1 11.3882 2.8962 13 5.23529 13Z" stroke="#165648" stroke-linecap="round" stroke-linejoin="round"/>
</svg>
