<svg width="29" height="37" viewBox="0 0 29 37" fill="none" xmlns="http://www.w3.org/2000/svg">
<mask id="path-1-inside-1_5_272" fill="white">
<path fill-rule="evenodd" clip-rule="evenodd" d="M13.5641 0.51117C11.7862 1.10767 11.0459 3.2432 12.0781 4.79742C12.3866 5.26184 12.9381 5.72097 13.3623 5.8666L13.652 5.96606L13.6937 7.1601L13.0935 7.20961C11.3749 7.35143 9.39424 8.10063 7.78562 9.21723C6.90009 9.83189 5.45291 11.3283 4.86113 12.2412C3.52663 14.2997 2.89451 16.3951 2.89212 18.7679L2.89118 19.7646H1.63643C0.476697 19.7646 0.367192 19.7763 0.190838 19.9189L0 20.0732V23.6252L0.190838 23.7795C0.330038 23.892 0.486765 23.9338 0.770234 23.9338H1.15879V29.7819C1.15879 35.9816 1.15807 35.9673 1.48796 36.0974C1.64121 36.1579 26.894 36.1579 27.0473 36.0974C27.3771 35.9673 27.3764 35.9816 27.3764 29.7819V23.9338H27.7707C28.0831 23.9338 28.2072 23.8965 28.3682 23.7542L28.5714 23.5744V20.124L28.3682 19.9442C28.1701 19.7691 28.1333 19.7646 26.8913 19.7646H25.6176L25.6616 19.3326C25.7161 18.7961 25.6047 17.3191 25.4499 16.526C25.1735 15.1105 24.5005 13.4881 23.6583 12.2079C23.0791 11.3273 21.6062 9.81328 20.7496 9.21783C19.125 8.08857 17.1471 7.3428 15.4121 7.20521L14.847 7.16047V6.5735C14.847 6.0799 14.8671 5.98006 14.9737 5.94544C16.3898 5.48512 17.1846 4.19385 16.2715 3.83701C16.0023 3.73181 15.798 3.82957 15.3719 4.26763C14.7416 4.9155 13.9554 4.97238 13.3005 4.41743C12.4583 3.70382 12.6124 2.30334 13.5865 1.81867C13.8622 1.68145 14.0334 1.65316 14.5295 1.66269C15.252 1.67654 15.4264 1.56531 15.4264 1.09054C15.4264 0.619123 15.1949 0.460395 14.4663 0.43203C14.0957 0.417587 13.7535 0.447664 13.5641 0.51117ZM13.0365 8.52678C8.7459 9.07935 5.17827 12.4519 4.30469 16.781C4.1539 17.5286 4.04867 18.8863 4.10386 19.3737L4.14811 19.7646H24.3966L24.4465 19.354C24.5091 18.8393 24.4345 17.8561 24.263 16.9326C23.494 12.7919 20.3284 9.51637 16.2748 8.66719C15.4244 8.48903 13.8572 8.42106 13.0365 8.52678ZM1.15879 22.6682H27.3764V21.0303H1.15879V22.6682ZM2.39001 31.6766H11.0085L11.0136 30.504C11.0164 29.8591 11.0408 29.2768 11.0679 29.21C11.1744 28.9471 13.9253 25.8805 14.0935 25.8371C14.1892 25.8124 14.346 25.8124 14.4417 25.8371C14.6099 25.8805 17.3608 28.9471 17.4673 29.21C17.4944 29.2768 17.5188 29.8591 17.5216 30.504L17.5267 31.6766H26.1452V23.9338H2.39001V31.6766ZM13.2245 28.5579L12.2397 29.6829V34.9524H16.2955V29.6829L15.3107 28.5579C14.7691 27.9392 14.2997 27.433 14.2676 27.433C14.2355 27.433 13.7661 27.9392 13.2245 28.5579ZM2.39001 34.9524H11.0085V32.9423H2.39001V34.9524ZM17.5267 34.9524H26.1452V32.9423H17.5267V34.9524Z"/>
</mask>
<path d="M13.5641 0.51117L9.0239 -13.0339L9.02001 -13.0326L13.5641 0.51117ZM12.0781 4.79742L0.178006 12.7011L0.178033 12.7012L12.0781 4.79742ZM13.3623 5.8666L18.0014 -7.6449L18.0009 -7.64508L13.3623 5.8666ZM13.652 5.96606L27.929 5.46726L27.5859 -4.35412L18.2911 -7.54543L13.652 5.96606ZM13.6937 7.1601L14.868 21.3975L28.4464 20.2775L27.9707 6.66129L13.6937 7.1601ZM13.0935 7.20961L11.9192 -7.02776L11.9185 -7.02771L13.0935 7.20961ZM7.78562 9.21723L15.9315 20.9529L15.9317 20.9528L7.78562 9.21723ZM4.86113 12.2412L16.8482 20.0123L16.8485 20.0118L4.86113 12.2412ZM2.89212 18.7679L-11.3936 18.7535L-11.3936 18.7544L2.89212 18.7679ZM2.89118 19.7646V34.0503H17.1634L17.1769 19.7781L2.89118 19.7646ZM0.190838 19.9189L9.17137 31.0289L9.17498 31.026L0.190838 19.9189ZM0 20.0732L-8.98053 8.96321L-14.2857 13.2515V20.0732H0ZM0 23.6252H-14.2857V30.4469L-8.98053 34.7352L0 23.6252ZM0.190838 23.7795L9.17376 12.6714L9.17137 12.6695L0.190838 23.7795ZM1.15879 23.9338H15.4445V9.6481H1.15879V23.9338ZM1.48796 36.0974L-3.75442 49.3865L-3.75429 49.3865L1.48796 36.0974ZM27.0473 36.0974L32.2895 49.3865L32.2896 49.3865L27.0473 36.0974ZM27.3764 23.9338V9.6481H13.0907V23.9338H27.3764ZM28.3682 23.7542L37.8308 34.4565L37.832 34.4554L28.3682 23.7542ZM28.5714 23.5744L38.0353 34.2757L42.8571 30.0114V23.5744H28.5714ZM28.5714 20.124H42.8571V13.687L38.0353 9.42268L28.5714 20.124ZM28.3682 19.9442L37.832 9.24296L37.8303 9.2414L28.3682 19.9442ZM25.6176 19.7646L11.4053 18.3182L9.80422 34.0503H25.6176V19.7646ZM25.6616 19.3326L39.8739 20.779L39.8741 20.7772L25.6616 19.3326ZM25.4499 16.526L11.4289 19.2635L11.4289 19.2636L25.4499 16.526ZM23.6583 12.2079L11.7232 20.0587L11.7233 20.0588L23.6583 12.2079ZM20.7496 9.21783L28.9033 -2.51239L28.9032 -2.51248L20.7496 9.21783ZM15.4121 7.20521L16.5415 -7.03579L16.5397 -7.03593L15.4121 7.20521ZM14.847 7.16047H0.561288V20.3598L13.7194 21.4016L14.847 7.16047ZM14.9737 5.94544L19.386 19.5327L19.3902 19.5313L14.9737 5.94544ZM16.2715 3.83701L21.4716 -9.46864L21.4712 -9.46883L16.2715 3.83701ZM13.3005 4.41743L4.06504 15.3165L4.06517 15.3166L13.3005 4.41743ZM13.5865 1.81867L19.9503 14.6087L19.9526 14.6075L13.5865 1.81867ZM14.5295 1.66269L14.2551 15.9458L14.2557 15.9458L14.5295 1.66269ZM14.4663 0.43203L13.9101 14.7069L13.9106 14.7069L14.4663 0.43203ZM13.0365 8.52678L14.8612 22.6955L14.8616 22.6954L13.0365 8.52678ZM4.30469 16.781L-9.69876 13.9552L-9.69899 13.9564L4.30469 16.781ZM4.10386 19.3737L18.2989 17.7667L18.2989 17.7665L4.10386 19.3737ZM4.14811 19.7646L-10.0469 21.3717L-8.61153 34.0503H4.14811V19.7646ZM24.3966 19.7646V34.0503H37.0512L38.578 21.4881L24.3966 19.7646ZM24.4465 19.354L10.2652 17.6298L10.2651 17.6304L24.4465 19.354ZM24.263 16.9326L38.3086 14.3244L38.3086 14.3241L24.263 16.9326ZM16.2748 8.66719L19.204 -5.315L19.2039 -5.31503L16.2748 8.66719ZM1.15879 22.6682H-13.1269V36.9539H1.15879V22.6682ZM27.3764 22.6682V36.9539H41.6621V22.6682H27.3764ZM27.3764 21.0303H41.6621V6.74454H27.3764V21.0303ZM1.15879 21.0303V6.74454H-13.1269V21.0303H1.15879ZM2.39001 31.6766H-11.8957V45.9623H2.39001V31.6766ZM11.0085 31.6766V45.9623H25.2326L25.2941 31.7384L11.0085 31.6766ZM11.0136 30.504L-3.272 30.4415L-3.272 30.4423L11.0136 30.504ZM11.0679 29.21L24.3061 34.5795L24.3077 34.5756L11.0679 29.21ZM14.0935 25.8371L17.6636 39.6695L17.6644 39.6693L14.0935 25.8371ZM14.4417 25.8371L10.8708 39.6693L10.8716 39.6695L14.4417 25.8371ZM17.4673 29.21L4.22751 34.5756L4.22908 34.5795L17.4673 29.21ZM17.5216 30.504L31.8072 30.4423L31.8072 30.4415L17.5216 30.504ZM17.5267 31.6766L3.24112 31.7384L3.30263 45.9623H17.5267V31.6766ZM26.1452 31.6766V45.9623H40.4309V31.6766H26.1452ZM26.1452 23.9338H40.4309V9.6481H26.1452V23.9338ZM2.39001 23.9338V9.6481H-11.8957V23.9338H2.39001ZM13.2245 28.5579L2.4761 19.1476L2.47541 19.1484L13.2245 28.5579ZM12.2397 29.6829L1.49066 20.2733L-2.04599 24.3135V29.6829H12.2397ZM12.2397 34.9524H-2.04599V49.2382H12.2397V34.9524ZM16.2955 34.9524V49.2382H30.5812V34.9524H16.2955ZM16.2955 29.6829H30.5812V24.3135L27.0446 20.2733L16.2955 29.6829ZM15.3107 28.5579L26.0598 19.1484L26.0591 19.1476L15.3107 28.5579ZM2.39001 34.9524H-11.8957V49.2382H2.39001V34.9524ZM11.0085 34.9524V49.2382H25.2942V34.9524H11.0085ZM11.0085 32.9423H25.2942V18.6566H11.0085V32.9423ZM2.39001 32.9423V18.6566H-11.8957V32.9423H2.39001ZM17.5267 34.9524H3.24099V49.2382H17.5267V34.9524ZM26.1452 34.9524V49.2382H40.4309V34.9524H26.1452ZM26.1452 32.9423H40.4309V18.6566H26.1452V32.9423ZM17.5267 32.9423V18.6566H3.24099V32.9423H17.5267ZM9.02001 -13.0326C-1.5695 -9.47969 -6.11071 3.23255 0.178006 12.7011L23.9783 -3.10627C28.2025 3.25385 25.1419 11.695 18.1081 14.0549L9.02001 -13.0326ZM0.178033 12.7012C1.22104 14.2715 2.42802 15.5076 3.53631 16.4303C4.53499 17.2618 6.29408 18.5442 8.72373 19.3783L18.0009 -7.64508C19.11 -7.26431 19.9396 -6.81276 20.4587 -6.49647C21.0096 -6.16084 21.459 -5.82553 21.8173 -5.52718C22.4667 -4.98653 23.2437 -4.21227 23.9783 -3.10631L0.178033 12.7012ZM8.72321 19.3781L9.01291 19.4776L18.2911 -7.54543L18.0014 -7.6449L8.72321 19.3781ZM12.5194 -7.07727L11.9192 -7.02776L14.2678 21.447L14.868 21.3975L12.5194 -7.07727ZM11.9185 -7.02771C7.37226 -6.65252 3.02654 -4.86936 -0.360469 -2.51831L15.9317 20.9528C15.7398 21.086 15.5929 21.1565 15.4523 21.2097C15.3337 21.2546 14.9488 21.3908 14.2684 21.4469L11.9185 -7.02771ZM-0.360273 -2.51844C-1.91371 -1.44018 -3.24139 -0.155954 -4.05573 0.686081C-4.87458 1.53277 -6.10501 2.89502 -7.1263 4.47051L16.8485 20.0118C16.6937 20.2507 16.5729 20.4143 16.5141 20.492C16.4504 20.5763 16.4106 20.6242 16.4015 20.635C16.3881 20.651 16.4184 20.6146 16.4822 20.5486C16.5461 20.4825 16.5801 20.4525 16.5618 20.4689C16.5499 20.4796 16.501 20.5229 16.4158 20.5919C16.3373 20.6554 16.1724 20.7857 15.9315 20.9529L-0.360273 -2.51844ZM-7.12599 4.47003C-9.90462 8.75611 -11.3883 13.5309 -11.3936 18.7535L17.1778 18.7822C17.1777 18.893 17.1579 19.1682 17.054 19.5127C16.952 19.8507 16.8372 20.0294 16.8482 20.0123L-7.12599 4.47003ZM-11.3936 18.7544L-11.3945 19.7511L17.1769 19.7781L17.1778 18.7814L-11.3936 18.7544ZM2.89118 5.47888H1.63643V34.0503H2.89118V5.47888ZM1.63643 5.47888C1.41497 5.47888 0.167308 5.46168 -0.971672 5.58328C-1.73025 5.66427 -3.21924 5.87127 -4.9519 6.56045C-6.87745 7.32636 -8.19037 8.32418 -8.79331 8.81187L9.17498 31.026C8.66022 31.4424 7.42713 32.3852 5.60795 33.1088C3.98166 33.7557 2.6256 33.933 2.06141 33.9933C1.7528 34.0262 1.51815 34.0394 1.40456 34.0449C1.34162 34.048 1.29362 34.0496 1.26466 34.0505C1.23542 34.0514 1.21804 34.0518 1.21574 34.0518C1.21486 34.0518 1.24449 34.0513 1.32333 34.0509C1.40049 34.0505 1.50003 34.0503 1.63643 34.0503V5.47888ZM-8.78969 8.80895L-8.98053 8.96321L8.98053 31.1832L9.17137 31.0289L-8.78969 8.80895ZM-8.98053 34.7352L-8.78969 34.8895L9.17137 12.6695L8.98053 12.5152L-8.98053 34.7352ZM-8.79208 34.8875C-5.00121 37.9532 -0.994178 38.2195 0.770234 38.2195V9.6481C1.21636 9.6481 2.49631 9.66633 4.10387 10.0946C5.9807 10.5946 7.70863 11.4866 9.17376 12.6714L-8.79208 34.8875ZM0.770234 38.2195H1.15879V9.6481H0.770234V38.2195ZM-13.1269 23.9338V29.7819H15.4445V23.9338H-13.1269ZM-13.1269 29.7819C-13.1269 32.5953 -13.1329 34.6887 -13.0667 35.9594C-13.0467 36.3421 -13.0071 36.9576 -12.9083 37.6618C-12.8237 38.2644 -12.6017 39.6733 -11.9346 41.3125C-11.1362 43.2742 -9.71067 45.5433 -7.30845 47.3835C-6.25375 48.1915 -5.29143 48.6976 -4.67149 48.9904C-4.3676 49.1339 -4.1181 49.2389 -3.97596 49.2973C-3.90254 49.3275 -3.84279 49.3514 -3.80844 49.3651C-3.79073 49.3721 -3.77617 49.3779 -3.76776 49.3812C-3.76345 49.3829 -3.7598 49.3844 -3.75774 49.3852C-3.75379 49.3867 -3.75617 49.3858 -3.75442 49.3865L6.73034 22.8084C6.26472 22.6247 8.21971 23.2875 10.0667 24.7024C12.4058 26.4943 13.7772 28.6947 14.5293 30.5426C15.1501 32.068 15.3335 33.3179 15.386 33.6915C15.4225 33.9522 15.4417 34.1525 15.4512 34.2642C15.4611 34.3799 15.4651 34.4545 15.466 34.4721C15.4673 34.4968 15.4634 34.4268 15.4591 34.2C15.455 33.9837 15.4517 33.6887 15.4493 33.2826C15.4445 32.462 15.4445 31.3509 15.4445 29.7819H-13.1269ZM-3.75429 49.3865C-2.29476 49.9623 -1.05597 50.1555 -0.931723 50.1769C-0.533205 50.2455 -0.215364 50.2825 -0.0619694 50.2993C0.259984 50.3346 0.515014 50.3513 0.611018 50.3574C0.834894 50.3716 1.01912 50.378 1.09064 50.3804C1.26479 50.3863 1.43546 50.3896 1.55442 50.3917C1.8141 50.3961 2.14522 50.3996 2.50916 50.4025C3.24997 50.4085 4.27722 50.4133 5.47956 50.4171C7.89136 50.4247 11.0833 50.4285 14.2676 50.4285C17.4519 50.4285 20.6439 50.4247 23.0557 50.4171C24.258 50.4133 25.2852 50.4085 26.0261 50.4025C26.39 50.3996 26.7211 50.3961 26.9808 50.3917C27.0998 50.3896 27.2704 50.3863 27.4446 50.3804C27.5161 50.378 27.7003 50.3716 27.9242 50.3574C28.0202 50.3513 28.2752 50.3346 28.5972 50.2993C28.7506 50.2825 29.0684 50.2455 29.4669 50.1769C29.5912 50.1555 30.83 49.9623 32.2895 49.3865L21.805 22.8083C23.2633 22.233 24.5002 22.0402 24.6217 22.0193C25.0175 21.9512 25.3318 21.9147 25.481 21.8983C25.7945 21.8639 26.038 21.8482 26.1196 21.843C26.3145 21.8307 26.458 21.826 26.4772 21.8254C26.5468 21.823 26.5669 21.8231 26.4925 21.8244C26.3653 21.8266 26.1381 21.8293 25.7965 21.832C25.1264 21.8374 24.1544 21.842 22.9654 21.8458C20.5944 21.8533 17.4348 21.857 14.2676 21.857C11.1004 21.857 7.94084 21.8533 5.56984 21.8458C4.38079 21.842 3.40882 21.8374 2.73869 21.832C2.39715 21.8293 2.16987 21.8266 2.04273 21.8244C1.96827 21.8231 1.98842 21.823 2.05801 21.8254C2.07726 21.826 2.22069 21.8307 2.41565 21.843C2.4972 21.8482 2.74074 21.8639 3.05422 21.8983C3.20337 21.9147 3.51773 21.9512 3.91353 22.0193C4.03505 22.0402 5.27188 22.233 6.73021 22.8083L-3.75429 49.3865ZM32.2896 49.3865C32.2914 49.3858 32.289 49.3867 32.293 49.3852C32.295 49.3844 32.2987 49.3829 32.303 49.3812C32.3114 49.3779 32.3259 49.3721 32.3437 49.3651C32.378 49.3514 32.4378 49.3275 32.5112 49.2973C32.6533 49.2389 32.9028 49.1339 33.2067 48.9904C33.8266 48.6976 34.789 48.1915 35.8437 47.3835C38.2459 45.5433 39.6714 43.2743 40.4698 41.3125C41.1369 39.6733 41.3589 38.2644 41.4435 37.6618C41.5423 36.9576 41.5819 36.3421 41.6019 35.9594C41.6681 34.6887 41.6621 32.5953 41.6621 29.7819H13.0907C13.0907 31.3509 13.0907 32.462 13.0859 33.2826C13.0835 33.6887 13.0802 33.9837 13.0761 34.2C13.0718 34.4268 13.0679 34.4968 13.0692 34.4721C13.0701 34.4545 13.0742 34.3799 13.084 34.2642C13.0935 34.1525 13.1127 33.9522 13.1493 33.6915C13.2017 33.3179 13.3851 32.068 14.0059 30.5426C14.758 28.6947 16.1295 26.4943 18.4686 24.7024C20.3155 23.2875 22.2705 22.6247 21.8049 22.8084L32.2896 49.3865ZM41.6621 29.7819V23.9338H13.0907V29.7819H41.6621ZM27.3764 38.2195H27.7707V9.6481H27.3764V38.2195ZM27.7707 38.2195C28.2494 38.2195 30.0766 38.2284 32.2395 37.5781C34.874 36.786 36.7186 35.4399 37.8308 34.4565L18.9056 13.0518C19.8568 12.2107 21.5589 10.9545 24.013 10.2166C25.9955 9.62057 27.6044 9.6481 27.7707 9.6481V38.2195ZM37.832 34.4554L38.0353 34.2757L19.1076 12.8732L18.9044 13.0529L37.832 34.4554ZM38.0353 9.42268L37.832 9.24296L18.9044 30.6455L19.1076 30.8253L38.0353 9.42268ZM37.8303 9.2414C37.7829 9.19954 36.4891 7.98926 34.5559 7.03424C32.5322 6.03449 30.7291 5.7271 29.7462 5.60754C28.4587 5.45093 26.974 5.47888 26.8913 5.47888V34.0503C27.0474 34.0503 27.1586 34.0504 27.2481 34.0507C27.3394 34.0511 27.3712 34.0516 27.3694 34.0516C27.366 34.0515 27.3439 34.0511 27.3076 34.05C27.2718 34.0489 27.2116 34.0468 27.133 34.0428C26.9935 34.0358 26.6915 34.018 26.2962 33.9699C25.5025 33.8734 23.8234 33.5999 21.9011 32.6503C20.9663 32.1885 20.2292 31.6933 19.6973 31.2922C19.4468 31.1033 19.2503 30.9415 19.1264 30.8371C19.0076 30.7369 18.9195 30.6589 18.9061 30.6471L37.8303 9.2414ZM26.8913 5.47888H25.6176V34.0503H26.8913V5.47888ZM39.8299 21.211L39.8739 20.779L11.4493 17.8862L11.4053 18.3182L39.8299 21.211ZM39.8741 20.7772C40.0418 19.127 39.921 17.5011 39.8795 16.9511C39.8181 16.1378 39.6985 14.9546 39.4708 13.7884L11.4289 19.2636C11.38 19.013 11.3677 18.8909 11.3743 18.9452C11.3776 18.9721 11.3838 19.0313 11.389 19.0999C11.3947 19.1757 11.393 19.1808 11.3913 19.107C11.3904 19.0683 11.3885 18.9623 11.3916 18.8041C11.3942 18.6737 11.4031 18.3399 11.4491 17.8881L39.8741 20.7772ZM39.4708 13.7885C38.8166 10.4376 37.3924 7.09198 35.5933 4.35699L11.7233 20.0588C11.6561 19.9567 11.6196 19.8899 11.6041 19.8603C11.5878 19.8293 11.5784 19.8083 11.5711 19.7907C11.564 19.7736 11.5486 19.7348 11.5273 19.6662C11.507 19.6008 11.4687 19.4672 11.4289 19.2635L39.4708 13.7885ZM35.5934 4.35708C34.5717 2.80384 33.334 1.4528 32.5478 0.644686C31.767 -0.157957 30.4422 -1.44272 28.9033 -2.51239L12.5958 20.948C12.3434 20.7725 12.1724 20.6367 12.0962 20.5749C12.0119 20.5065 11.9656 20.4651 11.9582 20.4585C11.9486 20.45 11.993 20.49 12.0681 20.5672C12.143 20.6442 12.1833 20.6912 12.1775 20.6844C12.1724 20.6783 12.1344 20.6334 12.0709 20.5507C12.0135 20.4759 11.8868 20.3074 11.7232 20.0587L35.5934 4.35708ZM28.9032 -2.51248C25.4901 -4.8849 21.1283 -6.67205 16.5415 -7.03579L14.2828 21.4462C13.6089 21.3928 13.2175 21.2578 13.082 21.2067C12.9263 21.148 12.777 21.074 12.596 20.9481L28.9032 -2.51248ZM16.5397 -7.03593L15.9746 -7.08068L13.7194 21.4016L14.2846 21.4464L16.5397 -7.03593ZM29.1327 7.16047V6.5735H0.561288V7.16047H29.1327ZM29.1327 6.5735C29.1327 6.5035 29.1344 6.6624 29.1232 6.91137C29.1157 7.07856 29.0824 7.87974 28.8739 8.913C28.6762 9.89272 28.1 12.2711 26.2317 14.6996C24.0672 17.5131 21.3588 18.8921 19.386 19.5327L10.5615 -7.64183C8.53539 -6.98388 5.78452 -5.57944 3.58625 -2.72202C1.68421 -0.249645 1.08297 2.191 0.866918 3.26171C0.640067 4.38595 0.595011 5.30681 0.580414 5.63263C0.562154 6.04023 0.561288 6.3967 0.561288 6.5735H29.1327ZM19.3902 19.5313C22.6991 18.4557 26.3066 16.1672 28.6619 12.3407C29.7903 10.5073 31.596 6.68282 30.7177 1.74868C29.6587 -4.20079 25.4446 -7.91594 21.4716 -9.46864L11.0714 17.1427C7.55499 15.7684 3.58396 12.3485 2.58844 6.75585C1.77366 2.17856 3.46331 -1.22743 4.3302 -2.63583C6.16231 -5.61239 8.66446 -7.02514 10.5573 -7.64044L19.3902 19.5313ZM21.4712 -9.46883C18.0049 -10.8234 13.7459 -10.9674 9.71319 -9.03726C7.07562 -7.77488 5.39164 -5.96054 5.13198 -5.69362L25.6117 14.2289C25.5425 14.3001 25.2412 14.6091 24.7778 14.9936C24.3327 15.363 23.4029 16.0859 22.0479 16.7345C20.5712 17.4412 18.6336 18.0378 16.35 18.0814C14.1098 18.1242 12.292 17.6196 11.0719 17.1429L21.4712 -9.46883ZM5.13198 -5.69362C6.74066 -7.34729 9.50586 -9.17943 13.3149 -9.45491C17.2196 -9.73731 20.4472 -8.25141 22.5357 -6.48171L4.06517 15.3166C6.80863 17.6412 10.7568 19.3762 15.3759 19.0421C19.8994 18.7149 23.3728 16.5304 25.6117 14.2289L5.13198 -5.69362ZM22.5359 -6.48161C29.2323 -0.807323 28.5053 10.3521 19.9503 14.6087L7.22281 -10.9714C-3.28044 -5.74543 -4.31568 8.21496 4.06504 15.3165L22.5359 -6.48161ZM19.9526 14.6075C19.6761 14.7452 19.1614 14.9882 18.4806 15.2254C17.7613 15.476 17.0308 15.6601 16.3063 15.7799C15.6253 15.8925 15.0784 15.9267 14.7591 15.939C14.597 15.9452 14.4703 15.9465 14.393 15.9467C14.3155 15.9469 14.2652 15.946 14.2551 15.9458L14.8039 -12.6204C14.4543 -12.6271 13.1674 -12.6605 11.6444 -12.4086C9.70914 -12.0886 8.21632 -11.4659 7.22048 -10.9702L19.9526 14.6075ZM14.2557 15.9458C14.6938 15.9542 15.6895 15.9644 16.8827 15.8036C18.0126 15.6513 20.4049 15.2156 22.9317 13.6038C29.6283 9.33204 29.7121 2.32946 29.7121 1.09054H1.14068C1.14068 0.557937 1.15578 -1.25418 1.94259 -3.44549C2.89645 -6.10203 4.75605 -8.69157 7.56611 -10.4841C9.95899 -12.0105 12.1722 -12.3913 13.0661 -12.5118C14.0234 -12.6408 14.7265 -12.6219 14.8032 -12.6204L14.2557 15.9458ZM29.7121 1.09054C29.7121 -1.50952 28.9324 -7.3226 23.2999 -11.1858C19.4576 -13.8212 15.441 -13.8266 15.0221 -13.8429L13.9106 14.7069C13.6923 14.6984 12.9525 14.6652 11.9703 14.4577C11.0092 14.2546 9.14049 13.7486 7.13932 12.3761C4.8942 10.8362 3.15597 8.66701 2.13951 6.15947C1.23597 3.93049 1.14068 2.02059 1.14068 1.09054H29.7121ZM15.0226 -13.8429C14.1387 -13.8773 11.7078 -13.9335 9.0239 -13.0339L18.1043 14.0562C17.3024 14.325 16.6425 14.4621 16.2452 14.533C15.8168 14.6096 15.4591 14.6503 15.1963 14.6734C14.6803 14.7187 14.2508 14.7202 13.9101 14.7069L15.0226 -13.8429ZM11.2117 -5.64192C0.679563 -4.28551 -7.64907 3.79778 -9.69876 13.9552L18.3081 19.6068C18.1403 20.4383 17.7288 21.1219 17.2029 21.6191C16.6767 22.1165 15.8875 22.5633 14.8612 22.6955L11.2117 -5.64192ZM-9.69899 13.9564C-9.9328 15.1155 -10.0541 16.273 -10.116 17.0714C-10.1544 17.5668 -10.2877 19.2453 -10.0912 20.9809L18.2989 17.7665C18.3557 18.2683 18.368 18.6446 18.3718 18.7996C18.3764 18.9854 18.3744 19.1164 18.3732 19.1751C18.3707 19.2891 18.3667 19.3223 18.3701 19.2784C18.3728 19.2428 18.376 19.2153 18.3758 19.2167C18.3754 19.2202 18.3718 19.2489 18.3635 19.3015C18.356 19.3498 18.3387 19.4553 18.3084 19.6057L-9.69899 13.9564ZM-10.0912 20.9808L-10.0469 21.3717L18.3431 18.1575L18.2989 17.7667L-10.0912 20.9808ZM38.578 21.4881L38.6279 21.0776L10.2651 17.6304L10.2152 18.041L38.578 21.4881ZM38.6278 21.0782C38.9539 18.3957 38.5671 15.7161 38.3086 14.3244L10.2174 19.5408C10.2113 19.5078 10.2051 19.4741 10.1977 19.376C10.1935 19.3213 10.1839 19.1782 10.1828 18.9576C10.1819 18.7816 10.184 18.2975 10.2652 17.6298L38.6278 21.0782ZM38.3086 14.3241C36.5057 4.6164 29.0513 -3.25207 19.204 -5.315L13.3457 22.6494C11.6055 22.2848 10.4824 20.9674 10.2175 19.5411L38.3086 14.3241ZM19.2039 -5.31503C16.8695 -5.80403 13.6945 -5.96173 11.2113 -5.64187L14.8616 22.6954C14.5971 22.7295 14.4 22.7446 14.2929 22.7514C14.1787 22.7588 14.1012 22.761 14.065 22.7617C13.999 22.7631 13.9911 22.7613 14.0256 22.7628C14.0592 22.7643 14.0601 22.7657 14.0114 22.7605C13.9974 22.759 13.7508 22.7343 13.3458 22.6494L19.2039 -5.31503ZM25.2941 31.7384L25.2992 30.5658L-3.272 30.4423L-3.27707 31.6149L25.2941 31.7384ZM25.2992 30.5666C25.2995 30.4842 25.3006 30.4072 25.3019 30.3426C25.3026 30.3108 25.3033 30.285 25.3039 30.2658C25.3045 30.2462 25.3049 30.2374 25.3048 30.2391C25.3048 30.2395 25.3039 30.2606 25.3017 30.2992C25.2997 30.3329 25.2948 30.4149 25.2852 30.5303C25.2781 30.6166 25.256 30.8753 25.2085 31.2184C25.1852 31.3867 25.1377 31.7084 25.0545 32.112C25.0119 32.3186 24.9452 32.6195 24.847 32.9794C24.7568 33.3095 24.5875 33.8858 24.3061 34.5795L-2.17034 23.8406C-2.6677 25.0668 -2.87582 26.0878 -2.92882 26.345C-3.01532 26.7647 -3.06613 27.1064 -3.0927 27.2983C-3.14676 27.6885 -3.17517 28.0088 -3.18847 28.1691C-3.21742 28.5183 -3.23281 28.8338 -3.24152 29.0413C-3.26031 29.4892 -3.26997 29.9785 -3.272 30.4415L25.2992 30.5666ZM24.3077 34.5756C23.8586 35.6838 23.368 36.4764 23.2445 36.6766C23.0457 36.999 22.8771 37.2421 22.7906 37.3647C22.615 37.6136 22.4814 37.7835 22.4534 37.8191C22.3816 37.9104 22.3699 37.9211 22.4611 37.8135C22.6225 37.623 22.8871 37.3201 23.1917 36.9805C23.4981 36.639 23.7608 36.3541 23.9152 36.1919C24.0086 36.0936 23.9716 36.1359 23.8513 36.2523C23.8111 36.2911 23.5891 36.5067 23.2654 36.7808C23.1176 36.906 22.753 37.2106 22.2511 37.5613C21.9989 37.7374 21.5582 38.0336 20.979 38.3529C20.5199 38.6059 19.3261 39.2405 17.6636 39.6695L10.5234 12.0047C7.7818 12.7123 5.91664 14.1196 5.88953 14.1385C5.36733 14.5033 4.97775 14.8276 4.80051 14.9778C4.41802 15.3017 4.11953 15.5879 3.98789 15.7152C3.68454 16.0086 3.40417 16.2996 3.21442 16.4991C2.80232 16.9323 2.33918 17.4386 1.92347 17.902C1.50599 18.3674 1.0524 18.8831 0.662824 19.3429C0.478497 19.5604 0.233046 19.8542 -0.0102352 20.1637C-0.12394 20.3084 -0.327783 20.5712 -0.555454 20.8939C-0.667963 21.0534 -0.858066 21.3286 -1.07359 21.6781C-1.21373 21.9053 -1.71612 22.7198 -2.17191 23.8445L24.3077 34.5756ZM17.6644 39.6693C16.1646 40.0565 14.9389 40.1043 14.2676 40.1043C13.5964 40.1043 12.3706 40.0565 10.8708 39.6693L18.0126 12.0049C16.4171 11.593 15.0651 11.5329 14.2676 11.5329C13.4701 11.5329 12.1181 11.593 10.5226 12.0049L17.6644 39.6693ZM10.8716 39.6695C9.2091 39.2405 8.01532 38.6059 7.55625 38.3529C6.97701 38.0336 6.53628 37.7374 6.28409 37.5613C5.78217 37.2106 5.4176 36.906 5.26977 36.7808C4.9461 36.5067 4.72407 36.2911 4.68394 36.2523C4.56364 36.1359 4.5266 36.0936 4.62007 36.1919C4.77439 36.3541 5.03716 36.639 5.34351 36.9805C5.64809 37.3201 5.91272 37.623 6.07415 37.8135C6.16533 37.9211 6.15359 37.9104 6.08179 37.8191C6.05383 37.7835 5.92018 37.6136 5.74459 37.3647C5.65812 37.2421 5.48953 36.999 5.29068 36.6766C5.16721 36.4764 4.67664 35.6838 4.22751 34.5756L30.7071 23.8445C30.2513 22.7198 29.7489 21.9053 29.6088 21.6781C29.3933 21.3286 29.2032 21.0534 29.0907 20.8939C28.863 20.5712 28.6592 20.3084 28.5454 20.1637C28.3022 19.8542 28.0567 19.5604 27.8724 19.3429C27.4828 18.8831 27.0292 18.3674 26.6117 17.902C26.196 17.4386 25.7329 16.9323 25.3208 16.4991C25.131 16.2996 24.8507 16.0086 24.5473 15.7152C24.4157 15.5879 24.1172 15.3017 23.7347 14.9778C23.5575 14.8276 23.1679 14.5033 22.6457 14.1385C22.6186 14.1196 20.7534 12.7123 18.0119 12.0047L10.8716 39.6695ZM4.22908 34.5795C3.94772 33.8858 3.77838 33.3095 3.68826 32.9794C3.59005 32.6195 3.52327 32.3186 3.48068 32.112C3.39752 31.7084 3.35002 31.3867 3.3267 31.2184C3.27918 30.8753 3.25714 30.6166 3.24999 30.5303C3.24041 30.4149 3.23547 30.3329 3.23353 30.2992C3.23131 30.2606 3.23043 30.2395 3.23042 30.2391C3.23035 30.2374 3.23072 30.2462 3.23132 30.2658C3.23191 30.285 3.2326 30.3108 3.23327 30.3426C3.23465 30.4072 3.2357 30.4842 3.23606 30.5666L31.8072 30.4415C31.8052 29.9785 31.7955 29.4892 31.7767 29.0413C31.768 28.8338 31.7526 28.5183 31.7237 28.1691C31.7104 28.0088 31.682 27.6885 31.6279 27.2983C31.6013 27.1064 31.5505 26.7647 31.464 26.345C31.411 26.0878 31.2029 25.0668 30.7056 23.8406L4.22908 34.5795ZM3.23605 30.5658L3.24112 31.7384L31.8123 31.6149L31.8072 30.4423L3.23605 30.5658ZM2.47541 19.1484L1.49066 20.2733L22.9888 39.0924L23.9735 37.9674L2.47541 19.1484ZM27.0446 20.2733L26.0598 19.1484L4.56167 37.9674L5.54642 39.0924L27.0446 20.2733ZM26.0591 19.1476C25.7253 18.7663 25.3788 18.3795 25.0735 18.0502C24.9362 17.9021 24.7211 17.6725 24.4827 17.4334C24.3887 17.3392 24.1245 17.0752 23.7808 16.7702C23.6405 16.6457 23.2246 16.2787 22.6538 15.8656C22.3883 15.6735 21.7837 15.247 20.9544 14.808C20.6949 14.6707 18.0205 13.1473 14.2676 13.1473V41.7187C12.092 41.7187 10.4252 41.2186 9.61784 40.9405C8.70871 40.6275 8.00907 40.283 7.5894 40.0608C6.76378 39.6239 6.16364 39.2002 5.90349 39.012C5.34337 38.6066 4.94139 38.2511 4.818 38.1416C4.50823 37.8668 4.29027 37.6472 4.25327 37.6101C4.1288 37.4853 4.07089 37.4208 4.12264 37.4767C4.19547 37.5552 4.35456 37.7309 4.56236 37.9682L26.0591 19.1476ZM14.2676 13.1473C10.5147 13.1473 7.84036 14.6707 7.58084 14.808C6.75152 15.247 6.14686 15.6735 5.88137 15.8656C5.31059 16.2787 4.89471 16.6457 4.75436 16.7702C4.41066 17.0752 4.14653 17.3392 4.05255 17.4334C3.81412 17.6725 3.599 17.9021 3.46169 18.0502C3.1564 18.3795 2.80996 18.7663 2.4761 19.1476L23.9729 37.9682C24.1807 37.7309 24.3397 37.5552 24.4126 37.4767C24.4643 37.4208 24.4064 37.4853 24.282 37.6101C24.245 37.6472 24.027 37.8668 23.7172 38.1416C23.5938 38.2511 23.1919 38.6066 22.6317 39.012C22.3716 39.2002 21.7714 39.6239 20.9458 40.0608C20.5261 40.283 19.8265 40.6274 18.9174 40.9405C18.11 41.2186 16.4432 41.7187 14.2676 41.7187V13.1473ZM-0.625004 6.46487L-0.583287 7.6589L27.9707 6.66129L27.929 5.46726L-0.625004 6.46487ZM-14.2857 20.0732V23.6252H14.2857V20.0732H-14.2857ZM42.8571 23.5744V20.124H14.2857V23.5744H42.8571ZM4.14811 34.0503H24.3966V5.47888H4.14811V34.0503ZM-13.1269 21.0303V22.6682H15.4445V21.0303H-13.1269ZM1.15879 36.9539H27.3764V8.38244H1.15879V36.9539ZM41.6621 22.6682V21.0303H13.0907V22.6682H41.6621ZM27.3764 6.74454H1.15879V35.316H27.3764V6.74454ZM-11.8957 23.9338V31.6766H16.6757V23.9338H-11.8957ZM2.39001 45.9623H11.0085V17.3909H2.39001V45.9623ZM17.5267 45.9623H26.1452V17.3909H17.5267V45.9623ZM40.4309 31.6766V23.9338H11.8595V31.6766H40.4309ZM26.1452 9.6481H2.39001V38.2195H26.1452V9.6481ZM-2.04599 29.6829V34.9524H26.5254V29.6829H-2.04599ZM12.2397 49.2382H16.2955V20.6667H12.2397V49.2382ZM30.5812 34.9524V29.6829H2.00978V34.9524H30.5812ZM-11.8957 32.9423V34.9524H16.6757V32.9423H-11.8957ZM2.39001 49.2382H11.0085V20.6667H2.39001V49.2382ZM25.2942 34.9524V32.9423H-3.27721V34.9524H25.2942ZM11.0085 18.6566H2.39001V47.228H11.0085V18.6566ZM3.24099 32.9423V34.9524H31.8124V32.9423H3.24099ZM17.5267 49.2382H26.1452V20.6667H17.5267V49.2382ZM40.4309 34.9524V32.9423H11.8595V34.9524H40.4309ZM26.1452 18.6566H17.5267V47.228H26.1452V18.6566Z" fill="#F5F6F8" mask="url(#path-1-inside-1_5_272)"/>
</svg>
